<mxfile host="65bd71144e">
    <diagram id="NhyFRNF5jW8fj1KOiwIl" name="Page-1">
        <mxGraphModel dx="658" dy="529" grid="1" gridSize="10" guides="1" tooltips="1" connect="1" arrows="1" fold="1" page="1" pageScale="1" pageWidth="827" pageHeight="1169" math="0" shadow="0">
            <root>
                <mxCell id="0"/>
                <mxCell id="1" parent="0"/>
                <mxCell id="27" value="Books" style="swimlane;childLayout=stackLayout;horizontal=1;startSize=30;horizontalStack=0;rounded=1;fontSize=14;fontStyle=0;strokeWidth=2;resizeParent=0;resizeLast=1;shadow=0;dashed=0;align=center;fillColor=#cce5ff;strokeColor=#36393d;fontColor=#1A1A1A;" parent="1" vertex="1">
                    <mxGeometry x="20" y="90" width="190" height="210" as="geometry">
                        <mxRectangle x="140" y="210" width="70" height="30" as="alternateBounds"/>
                    </mxGeometry>
                </mxCell>
                <mxCell id="28" value="+bookId: int&#10;+title: varchar(100)&#10;+description: text&#10;+buyingDate: date&#10;+startReadingDate: date&#10;+endReadingDate: date&#10;+publishDate:date&#10;+chapters: int&#10;+fkCategoriesID: enum&#10;+fkAuthorId: enum" style="align=left;strokeColor=#36393d;fillColor=#f9f7ed;spacingLeft=4;fontSize=12;verticalAlign=top;resizable=0;rotatable=0;part=1;fontColor=#1A1A1A;" parent="27" vertex="1">
                    <mxGeometry y="30" width="190" height="180" as="geometry"/>
                </mxCell>
                <mxCell id="29" value="" style="align=left;strokeColor=#36393d;fillColor=#f9f7ed;spacingLeft=4;fontSize=12;verticalAlign=top;resizable=0;rotatable=0;part=1;fontColor=#1A1A1A;" parent="27" vertex="1">
                    <mxGeometry y="210" width="190" as="geometry"/>
                </mxCell>
                <mxCell id="30" value="Authors" style="swimlane;childLayout=stackLayout;horizontal=1;startSize=30;horizontalStack=0;rounded=1;fontSize=14;fontStyle=0;strokeWidth=2;resizeParent=0;resizeLast=1;shadow=0;dashed=0;align=center;fillColor=#cce5ff;strokeColor=#36393d;fontColor=#1A1A1A;" parent="1" vertex="1">
                    <mxGeometry x="450" y="60" width="210" height="210" as="geometry">
                        <mxRectangle x="140" y="210" width="70" height="30" as="alternateBounds"/>
                    </mxGeometry>
                </mxCell>
                <mxCell id="31" value="+authorId: int&#10;+authorFName: varchar(100)&#10;+authorLName: varchar(100)&#10;+dateOfBirth: date&#10;+fkbookId: int" style="align=left;strokeColor=#36393d;fillColor=#f9f7ed;spacingLeft=4;fontSize=12;verticalAlign=top;resizable=0;rotatable=0;part=1;fontColor=#1A1A1A;" parent="30" vertex="1">
                    <mxGeometry y="30" width="210" height="180" as="geometry"/>
                </mxCell>
                <mxCell id="32" value="" style="align=left;strokeColor=#36393d;fillColor=#f9f7ed;spacingLeft=4;fontSize=12;verticalAlign=top;resizable=0;rotatable=0;part=1;fontColor=#1A1A1A;" parent="30" vertex="1">
                    <mxGeometry y="210" width="210" as="geometry"/>
                </mxCell>
                <mxCell id="33" style="edgeStyle=orthogonalEdgeStyle;rounded=0;orthogonalLoop=1;jettySize=auto;html=1;exitX=0.5;exitY=1;exitDx=0;exitDy=0;fontColor=#1A1A1A;" parent="30" source="31" target="31" edge="1">
                    <mxGeometry relative="1" as="geometry"/>
                </mxCell>
                <mxCell id="34" value="Categories" style="swimlane;childLayout=stackLayout;horizontal=1;startSize=30;horizontalStack=0;rounded=1;fontSize=14;fontStyle=0;strokeWidth=2;resizeParent=0;resizeLast=1;shadow=0;dashed=0;align=center;fillColor=#cce5ff;strokeColor=#36393d;fontColor=#1A1A1A;" parent="1" vertex="1">
                    <mxGeometry x="414" y="320" width="190" height="210" as="geometry">
                        <mxRectangle x="140" y="210" width="70" height="30" as="alternateBounds"/>
                    </mxGeometry>
                </mxCell>
                <mxCell id="35" value="+categoryId: int&#10;+categoryName: varchar(100)&#10;&#10;" style="align=left;strokeColor=#36393d;fillColor=#f9f7ed;spacingLeft=4;fontSize=12;verticalAlign=top;resizable=0;rotatable=0;part=1;fontColor=#1A1A1A;" parent="34" vertex="1">
                    <mxGeometry y="30" width="190" height="180" as="geometry"/>
                </mxCell>
                <mxCell id="36" value="" style="align=left;strokeColor=#36393d;fillColor=#f9f7ed;spacingLeft=4;fontSize=12;verticalAlign=top;resizable=0;rotatable=0;part=1;fontColor=#1A1A1A;" parent="34" vertex="1">
                    <mxGeometry y="210" width="190" as="geometry"/>
                </mxCell>
                <mxCell id="37" value="" style="edgeStyle=entityRelationEdgeStyle;fontSize=12;html=1;endArrow=ERzeroToMany;endFill=1;startArrow=ERzeroToMany;fontColor=#1A1A1A;entryX=0.016;entryY=0.148;entryDx=0;entryDy=0;entryPerimeter=0;fillColor=#ffff88;strokeColor=#FFB366;" parent="1" target="34" edge="1">
                    <mxGeometry width="100" height="100" relative="1" as="geometry">
                        <mxPoint x="210" y="235" as="sourcePoint"/>
                        <mxPoint x="310" y="135" as="targetPoint"/>
                    </mxGeometry>
                </mxCell>
                <mxCell id="38" value="" style="edgeStyle=entityRelationEdgeStyle;fontSize=12;html=1;endArrow=ERzeroToMany;endFill=1;startArrow=ERzeroToMany;fontColor=#1A1A1A;entryX=0;entryY=0.54;entryDx=0;entryDy=0;entryPerimeter=0;strokeColor=#FFB366;" parent="1" target="31" edge="1">
                    <mxGeometry width="100" height="100" relative="1" as="geometry">
                        <mxPoint x="210" y="170" as="sourcePoint"/>
                        <mxPoint x="510" y="220" as="targetPoint"/>
                    </mxGeometry>
                </mxCell>
                <mxCell id="39" value="Categories" style="swimlane;childLayout=stackLayout;horizontal=1;startSize=30;horizontalStack=0;rounded=1;fontSize=14;fontStyle=0;strokeWidth=2;resizeParent=0;resizeLast=1;shadow=0;dashed=0;align=center;fillColor=#cce5ff;strokeColor=#36393d;fontColor=#1A1A1A;" vertex="1" parent="1">
                    <mxGeometry x="20" y="350" width="190" height="210" as="geometry">
                        <mxRectangle x="140" y="210" width="70" height="30" as="alternateBounds"/>
                    </mxGeometry>
                </mxCell>
                <mxCell id="40" value="+publisherId: int&#10;+publisherName: varchar(100)&#10;&#10;" style="align=left;strokeColor=#36393d;fillColor=#f9f7ed;spacingLeft=4;fontSize=12;verticalAlign=top;resizable=0;rotatable=0;part=1;fontColor=#1A1A1A;" vertex="1" parent="39">
                    <mxGeometry y="30" width="190" height="180" as="geometry"/>
                </mxCell>
                <mxCell id="41" value="" style="align=left;strokeColor=#36393d;fillColor=#f9f7ed;spacingLeft=4;fontSize=12;verticalAlign=top;resizable=0;rotatable=0;part=1;fontColor=#1A1A1A;" vertex="1" parent="39">
                    <mxGeometry y="210" width="190" as="geometry"/>
                </mxCell>
                <mxCell id="42" value="" style="fontSize=12;html=1;endArrow=ERzeroToMany;endFill=1;startArrow=ERzeroToMany;entryX=0;entryY=0;entryDx=0;entryDy=0;exitX=0.5;exitY=0;exitDx=0;exitDy=0;strokeColor=#FFB366;" edge="1" parent="1" source="39" target="29">
                    <mxGeometry width="100" height="100" relative="1" as="geometry">
                        <mxPoint x="290" y="320" as="sourcePoint"/>
                        <mxPoint x="390" y="220" as="targetPoint"/>
                    </mxGeometry>
                </mxCell>
            </root>
        </mxGraphModel>
    </diagram>
</mxfile>